<svg width="120" height="42" viewBox="0 0 120 42" fill="none" xmlns="http://www.w3.org/2000/svg">
<path d="M118.5 16.5C118.5 17.9898 117.385 19.7682 114.467 21.665C111.614 23.5199 107.387 25.2475 102.029 26.721C91.3337 29.6621 76.4738 31.5 60 31.5C43.5262 31.5 28.6663 29.6621 17.9713 26.721C12.6132 25.2475 8.38567 23.5199 5.53273 21.665C2.61544 19.7682 1.5 17.9898 1.5 16.5C1.5 15.0102 2.61544 13.2318 5.53273 11.335C8.38567 9.48012 12.6132 7.75253 17.9713 6.27905C28.6663 3.33794 43.5262 1.5 60 1.5C76.4738 1.5 91.3337 3.33794 102.029 6.27905C107.387 7.75253 111.614 9.48012 114.467 11.335C117.385 13.2318 118.5 15.0102 118.5 16.5Z" stroke="black" stroke-width="3"/>
<path d="M118.5 25.5C118.5 26.9898 117.385 28.7682 114.467 30.665C111.614 32.5199 107.387 34.2475 102.029 35.721C91.3337 38.6621 76.4738 40.5 60 40.5C43.5262 40.5 28.6663 38.6621 17.9713 35.721C12.6132 34.2475 8.38567 32.5199 5.53273 30.665C2.61544 28.7682 1.5 26.9898 1.5 25.5C1.5 24.0102 2.61544 22.2318 5.53273 20.335C8.38567 18.4801 12.6132 16.7525 17.9713 15.279C28.6663 12.3379 43.5262 10.5 60 10.5C76.4738 10.5 91.3337 12.3379 102.029 15.279C107.387 16.7525 111.614 18.4801 114.467 20.335C117.385 22.2318 118.5 24.0102 118.5 25.5Z" stroke="black" stroke-width="3"/>
</svg>
