<svg width="506" height="506" viewBox="0 0 506 506" fill="none" xmlns="http://www.w3.org/2000/svg">
<rect x="1" y="1" width="72" height="72" stroke="black" stroke-width="2"/>
<rect x="1" y="73" width="72" height="72" stroke="black" stroke-width="2"/>
<rect x="1" y="145" width="72" height="72" stroke="black" stroke-width="2"/>
<rect x="1" y="217" width="72" height="72" stroke="black" stroke-width="2"/>
<rect x="1" y="289" width="72" height="72" stroke="black" stroke-width="2"/>
<rect x="1" y="361" width="72" height="72" stroke="black" stroke-width="2"/>
<rect x="1" y="433" width="72" height="72" stroke="black" stroke-width="2"/>
<rect x="73" y="1" width="72" height="72" stroke="black" stroke-width="2"/>
<rect x="73" y="73" width="72" height="72" stroke="black" stroke-width="2"/>
<rect x="73" y="145" width="72" height="72" stroke="black" stroke-width="2"/>
<rect x="73" y="217" width="72" height="72" stroke="black" stroke-width="2"/>
<rect x="73" y="289" width="72" height="72" stroke="black" stroke-width="2"/>
<rect x="73" y="361" width="72" height="72" stroke="black" stroke-width="2"/>
<rect x="73" y="433" width="72" height="72" stroke="black" stroke-width="2"/>
<rect x="145" y="1" width="72" height="72" stroke="black" stroke-width="2"/>
<rect x="145" y="73" width="72" height="72" stroke="black" stroke-width="2"/>
<rect x="145" y="145" width="72" height="72" stroke="black" stroke-width="2"/>
<rect x="145" y="217" width="72" height="72" stroke="black" stroke-width="2"/>
<rect x="145" y="289" width="72" height="72" stroke="black" stroke-width="2"/>
<rect x="145" y="361" width="72" height="72" stroke="black" stroke-width="2"/>
<rect x="145" y="433" width="72" height="72" stroke="black" stroke-width="2"/>
<rect x="217" y="1" width="72" height="72" stroke="black" stroke-width="2"/>
<rect x="217" y="73" width="72" height="72" stroke="black" stroke-width="2"/>
<rect x="217" y="145" width="72" height="72" stroke="black" stroke-width="2"/>
<rect x="217" y="217" width="72" height="72" stroke="black" stroke-width="2"/>
<rect x="217" y="289" width="72" height="72" stroke="black" stroke-width="2"/>
<rect x="217" y="361" width="72" height="72" stroke="black" stroke-width="2"/>
<rect x="217" y="433" width="72" height="72" stroke="black" stroke-width="2"/>
<rect x="289" y="1" width="72" height="72" stroke="black" stroke-width="2"/>
<rect x="289" y="73" width="72" height="72" stroke="black" stroke-width="2"/>
<rect x="289" y="145" width="72" height="72" stroke="black" stroke-width="2"/>
<rect x="289" y="217" width="72" height="72" stroke="black" stroke-width="2"/>
<rect x="289" y="289" width="72" height="72" stroke="black" stroke-width="2"/>
<rect x="289" y="361" width="72" height="72" stroke="black" stroke-width="2"/>
<rect x="289" y="433" width="72" height="72" stroke="black" stroke-width="2"/>
<rect x="361" y="1" width="72" height="72" stroke="black" stroke-width="2"/>
<rect x="361" y="73" width="72" height="72" stroke="black" stroke-width="2"/>
<rect x="361" y="145" width="72" height="72" stroke="black" stroke-width="2"/>
<rect x="361" y="217" width="72" height="72" stroke="black" stroke-width="2"/>
<rect x="361" y="289" width="72" height="72" stroke="black" stroke-width="2"/>
<rect x="361" y="361" width="72" height="72" stroke="black" stroke-width="2"/>
<rect x="361" y="433" width="72" height="72" stroke="black" stroke-width="2"/>
<rect x="433" y="1" width="72" height="72" stroke="black" stroke-width="2"/>
<rect x="433" y="73" width="72" height="72" stroke="black" stroke-width="2"/>
<rect x="433" y="145" width="72" height="72" stroke="black" stroke-width="2"/>
<rect x="433" y="217" width="72" height="72" stroke="black" stroke-width="2"/>
<rect x="433" y="289" width="72" height="72" stroke="black" stroke-width="2"/>
<rect x="433" y="361" width="72" height="72" stroke="black" stroke-width="2"/>
<rect x="433" y="433" width="72" height="72" stroke="black" stroke-width="2"/>
</svg>
