<svg width="237" height="237" viewBox="0 0 237 237" fill="none" xmlns="http://www.w3.org/2000/svg">
<mask id="path-1-inside-1_47_1229" fill="white">
<path fill-rule="evenodd" clip-rule="evenodd" d="M118.346 43.0908C166.771 5.68094 212.172 -10.3232 229.44 6.94427C246.707 24.2117 230.703 69.6132 193.293 118.038C230.703 166.463 246.707 211.864 229.44 229.132C212.173 246.399 166.771 230.395 118.346 192.985C69.9215 230.395 24.5199 246.399 7.25247 229.132C-10.015 211.864 5.98914 166.463 43.3991 118.038C5.98919 69.6132 -10.0149 24.2117 7.25253 6.94427C24.52 -10.3232 69.9215 5.68094 118.346 43.0908Z"/>
</mask>
<path fill-rule="evenodd" clip-rule="evenodd" d="M118.346 43.0908C166.771 5.68094 212.172 -10.3232 229.44 6.94427C246.707 24.2117 230.703 69.6132 193.293 118.038C230.703 166.463 246.707 211.864 229.44 229.132C212.173 246.399 166.771 230.395 118.346 192.985C69.9215 230.395 24.5199 246.399 7.25247 229.132C-10.015 211.864 5.98914 166.463 43.3991 118.038C5.98919 69.6132 -10.0149 24.2117 7.25253 6.94427C24.52 -10.3232 69.9215 5.68094 118.346 43.0908Z" fill="#D9D9D9"/>
<path d="M229.44 6.94427L227.319 9.06559L227.319 9.06559L229.44 6.94427ZM118.346 43.0908L116.512 45.4649L118.346 46.8818L120.18 45.4649L118.346 43.0908ZM193.293 118.038L190.919 116.204L189.502 118.038L190.919 119.872L193.293 118.038ZM229.44 229.132L227.319 227.01L227.319 227.01L229.44 229.132ZM118.346 192.985L120.18 190.611L118.346 189.194L116.512 190.611L118.346 192.985ZM7.25247 229.132L9.37379 227.01L9.37379 227.01L7.25247 229.132ZM43.3991 118.038L45.7731 119.872L47.19 118.038L45.7731 116.204L43.3991 118.038ZM7.25253 6.94427L5.13121 4.82295L5.13121 4.82295L7.25253 6.94427ZM231.561 4.82295C226.572 -0.1666 219.701 -2.58301 211.745 -2.9501C203.812 -3.3161 194.62 -1.66198 184.629 1.66742C164.641 8.32819 140.885 21.8878 116.512 40.7167L120.18 45.4649C144.232 26.8839 167.39 13.7366 186.525 7.35968C196.096 4.17026 204.519 2.72288 211.468 3.04352C218.394 3.36307 223.674 5.42143 227.319 9.06559L231.561 4.82295ZM195.667 119.872C214.496 95.4991 228.056 71.7434 234.717 51.7556C238.046 41.7646 239.7 32.5721 239.334 24.6394C238.967 16.6829 236.551 9.8125 231.561 4.82295L227.319 9.06559C230.963 12.7098 233.021 17.9899 233.341 24.9159C233.661 31.8656 232.214 40.2878 229.025 49.8587C222.648 68.9947 209.5 92.152 190.919 116.204L195.667 119.872ZM190.919 119.872C209.5 143.924 222.648 167.081 229.025 186.217C232.214 195.788 233.661 204.21 233.341 211.16C233.021 218.086 230.963 223.366 227.319 227.01L231.561 231.253C236.551 226.263 238.967 219.393 239.334 211.437C239.7 203.504 238.046 194.311 234.717 184.32C228.056 164.332 214.496 140.577 195.667 116.204L190.919 119.872ZM227.319 227.01C223.674 230.654 218.394 232.713 211.468 233.032C204.519 233.353 196.096 231.906 186.526 228.716C167.39 222.339 144.232 209.192 120.18 190.611L116.512 195.359C140.885 214.188 164.641 227.748 184.629 234.408C194.62 237.738 203.812 239.392 211.745 239.026C219.701 238.659 226.572 236.243 231.561 231.253L227.319 227.01ZM5.13115 231.253C10.1207 236.243 16.9911 238.659 24.9476 239.026C32.8804 239.392 42.0728 237.738 52.0638 234.408C72.0517 227.748 95.8074 214.188 120.18 195.359L116.512 190.611C92.4603 209.192 69.3029 222.339 50.1669 228.716C40.596 231.906 32.1739 233.353 25.2241 233.032C18.2981 232.713 13.018 230.654 9.37379 227.01L5.13115 231.253ZM41.025 116.204C22.196 140.577 8.6364 164.332 1.97563 184.32C-1.35378 194.311 -3.00791 203.504 -2.64191 211.437C-2.27482 219.393 0.141591 226.263 5.13115 231.253L9.37379 227.01C5.72962 223.366 3.67126 218.086 3.35171 211.16C3.03107 204.21 4.47845 195.788 7.66788 186.217C14.0448 167.081 27.1922 143.924 45.7731 119.872L41.025 116.204ZM45.7731 116.204C27.1922 92.152 14.0448 68.9947 7.66794 49.8587C4.47851 40.2878 3.03113 31.8656 3.35178 24.9159C3.67133 17.9899 5.72969 12.7098 9.37385 9.06559L5.13121 4.82295C0.141657 9.8125 -2.27476 16.6829 -2.64185 24.6394C-3.00784 32.5721 -1.35372 41.7646 1.97568 51.7556C8.63644 71.7434 22.1961 95.4991 41.025 119.872L45.7731 116.204ZM9.37385 9.06559C13.018 5.42143 18.2981 3.36307 25.2242 3.04352C32.1739 2.72288 40.596 4.17026 50.167 7.35968C69.3029 13.7366 92.4603 26.8839 116.512 45.4649L120.18 40.7167C95.8074 21.8878 72.0517 8.32819 52.0639 1.66742C42.0729 -1.66198 32.8804 -3.3161 24.9476 -2.9501C16.9911 -2.58301 10.1208 -0.1666 5.13121 4.82295L9.37385 9.06559Z" fill="black" mask="url(#path-1-inside-1_47_1229)"/>
</svg>
