<svg width="103" height="112" viewBox="0 0 103 112" fill="none"
    xmlns="http://www.w3.org/2000/svg">
    <path d="M47.1345 110.321C45.8011 110.213 44.2538 109.081 42.714 106.232C41.2107 103.451 39.9251 99.399 38.9597 94.3081C37.033 84.1479 36.4446 70.1947 37.6876 54.8758C38.9305 39.5569 41.7606 25.881 45.3 16.1644C47.0735 11.2956 48.9955 7.504 50.9275 5.00153C52.9064 2.43829 54.616 1.57019 55.9495 1.67838C57.283 1.78658 58.8303 2.91893 60.3701 5.76767C61.8734 8.54887 63.159 12.6008 64.1244 17.6917C66.0511 27.8519 66.6394 41.8051 65.3965 57.124C64.1536 72.4429 61.3235 86.1187 57.7841 95.8354C56.0106 100.704 54.0886 104.496 52.1565 106.998C50.1776 109.561 48.468 110.43 47.1345 110.321Z" stroke="black" stroke-width="3"/>
    <path d="M2.29463 79.3437C1.72158 78.1347 1.92858 76.2286 3.62576 73.4707C5.2827 70.7782 8.14893 67.6389 12.0751 64.2573C19.9107 57.5087 31.7004 50.0225 45.5884 43.4395C59.4764 36.8565 72.7351 32.4694 82.9197 30.6764C88.0228 29.7779 92.2675 29.5466 95.4007 29.9685C98.61 30.4007 100.217 31.4472 100.79 32.6561C101.363 33.8651 101.156 35.7712 99.4585 38.5291C97.8015 41.2216 94.9353 44.3609 91.0091 47.7424C83.1735 54.4911 71.3838 61.9772 57.4959 68.5603C43.6079 75.1433 30.3492 79.5303 20.1646 81.3234C15.0614 82.2219 10.8168 82.4532 7.68355 82.0313C4.47426 81.5991 2.86768 80.5526 2.29463 79.3437Z" stroke="black" stroke-width="3"/>
    <path d="M6.70212 25.0223C7.46257 23.9215 9.21685 23.1477 12.4538 23.2386C15.6141 23.3273 19.7659 24.2399 24.6575 25.9493C34.4198 29.3608 46.7978 35.8279 59.4429 44.5637C72.088 53.2996 82.5166 62.5884 89.1617 70.512C92.4914 74.4823 94.8141 78.0426 96.0153 80.967C97.2456 83.9624 97.1426 85.877 96.3822 86.9777C95.6217 88.0785 93.8674 88.8523 90.6305 88.7614C87.4702 88.6727 83.3184 87.7602 78.4268 86.0507C68.6645 82.6392 56.2865 76.1721 43.6414 67.4363C30.9963 58.7004 20.5677 49.4116 13.9226 41.488C10.5929 37.5178 8.27025 33.9574 7.06904 31.033C5.83867 28.0376 5.94167 26.123 6.70212 25.0223Z" stroke="black" stroke-width="3"/>
</svg>
